<svg id="line" xmlns="http://www.w3.org/2000/svg" viewBox="0 0 64 64"><title>1</title><path d="M55.18555,11.33594a16.46112,16.46112,0,0,0-23.31445.06446A16.43744,16.43744,0,0,0,8.81464,34.833L31.16748,57.18555a.99964.99964,0,0,0,1.41406,0L55.18555,34.582A16.51516,16.51516,0,0,0,55.18555,11.33594ZM53.77148,33.168l-21.897,21.89648L10.22852,33.419A14.4378,14.4378,0,0,1,30.647,13.00114l.50342.50277a.99782.99782,0,0,0,1.397.0166l.80616-.77051a14.43768,14.43768,0,1,1,20.418,20.418Z" stroke="black" stroke-width="1" ></path></svg>